<?xml version="1.0" standalone="no"?>
<!DOCTYPE svg PUBLIC "-//W3C//DTD SVG 20010904//EN"
 "http://www.w3.org/TR/2001/REC-SVG-20010904/DTD/svg10.dtd">
<svg version="1.0" xmlns="http://www.w3.org/2000/svg"
 width="967.000000pt" height="967.000000pt" viewBox="0 0 967.000000 967.000000"
 preserveAspectRatio="xMidYMid meet">
<metadata>
Created by potrace 1.11, written by Peter Selinger 2001-2013
</metadata>
<g transform="translate(0.000000,967.000000) scale(0.100000,-0.100000)"
fill="#000000" stroke="none">
<path d="M4660 9299 c-25 -4 -71 -8 -102 -8 -32 -1 -77 -5 -100 -11 -24 -5
-97 -16 -163 -25 -66 -9 -136 -20 -155 -25 -19 -5 -55 -13 -80 -19 -149 -33
-197 -44 -215 -51 -11 -5 -47 -16 -80 -25 -103 -29 -287 -92 -350 -120 -16 -7
-52 -22 -80 -33 -136 -54 -442 -206 -525 -262 -8 -6 -22 -13 -30 -17 -13 -6
-170 -111 -291 -194 -82 -57 -284 -224 -403 -332 -143 -132 -392 -405 -466
-513 -8 -12 -35 -48 -60 -80 -81 -106 -190 -275 -292 -454 -54 -94 -198 -390
-198 -406 0 -3 -6 -20 -14 -37 -28 -65 -39 -94 -63 -162 -13 -38 -27 -77 -30
-85 -7 -18 -42 -130 -62 -200 -54 -192 -99 -408 -122 -590 -5 -41 -14 -118
-21 -170 -15 -121 -15 -600 0 -745 30 -285 64 -488 117 -690 9 -33 20 -75 25
-94 4 -18 12 -37 17 -42 5 -5 41 33 83 87 105 136 222 269 387 441 113 118
292 283 307 283 11 0 106 -175 106 -195 0 -6 -19 -38 -43 -70 -194 -269 -389
-602 -492 -840 -10 -22 -23 -53 -30 -70 -73 -168 -87 -231 -74 -310 4 -17 -9
-24 -96 -51 -156 -49 -306 -67 -383 -45 -51 15 -41 -17 27 -85 62 -63 120 -99
176 -110 44 -8 44 -17 1 -43 -77 -48 -191 -187 -231 -285 l-16 -39 69 7 c65 7
180 -5 227 -23 137 -52 252 -132 406 -284 157 -154 296 -245 514 -333 43 -17
81 -37 83 -44 7 -20 -94 -106 -161 -137 -103 -49 -208 -76 -354 -94 -57 -7
-103 -16 -103 -21 0 -4 8 -8 18 -8 10 0 22 -4 27 -9 6 -5 42 -19 80 -30 39
-11 102 -29 140 -41 78 -23 206 -46 340 -62 100 -11 430 -4 478 11 46 13 200
41 230 41 25 0 128 -57 160 -88 10 -11 20 -40 23 -73 3 -29 9 -65 14 -79 4
-14 16 -52 26 -85 38 -123 186 -385 217 -385 5 0 36 25 69 55 65 60 99 80 198
115 54 20 85 24 180 23 108 0 190 -15 190 -35 0 -23 -117 -58 -197 -58 -35 0
-63 -4 -63 -8 0 -10 100 -55 155 -70 22 -6 63 -17 90 -24 69 -18 387 -17 481
1 39 7 77 12 83 10 8 -3 -2 -23 -27 -54 -71 -91 -102 -158 -141 -311 -13 -51
-14 -154 -2 -154 5 0 22 17 38 38 64 88 212 195 402 293 56 29 104 49 107 46
15 -15 5 -134 -15 -180 -12 -27 -21 -51 -21 -53 0 -2 22 -4 48 -4 54 0 133 24
174 51 14 11 28 19 31 19 26 0 -1 -136 -38 -191 -13 -20 -36 -49 -50 -65 -15
-16 -22 -30 -16 -32 14 -5 147 16 191 30 199 63 338 134 443 228 37 34 58 47
61 38 3 -7 12 -38 21 -68 28 -88 85 -189 143 -252 30 -32 58 -56 62 -53 4 2 4
22 -1 42 -42 197 -37 774 9 873 17 36 71 129 154 263 26 43 48 80 48 82 0 3
20 33 43 68 24 34 46 67 48 72 8 19 123 191 248 368 70 99 133 189 141 201 8
12 31 42 50 67 19 24 38 49 42 54 69 91 202 257 249 309 20 23 47 54 60 70 29
36 110 126 248 275 131 142 439 421 464 421 14 0 6 -13 -66 -112 -247 -338
-417 -587 -600 -880 -109 -174 -239 -402 -281 -493 -10 -22 -31 -67 -46 -100
-38 -82 -56 -135 -89 -272 -5 -21 -14 -57 -20 -79 -14 -53 -14 -239 -1 -265
16 -29 15 -29 195 43 236 95 561 270 776 418 390 268 723 588 1013 973 36 48
66 90 66 93 0 3 4 10 10 17 43 53 60 76 60 81 0 3 15 28 33 54 36 52 107 170
107 179 0 3 9 18 21 34 20 29 169 321 169 333 0 3 14 35 30 71 16 36 30 68 30
71 0 3 7 22 16 42 9 21 20 46 24 57 12 29 77 224 90 270 22 77 31 110 40 145
5 19 14 53 20 75 15 53 34 149 70 355 5 30 14 107 20 170 5 63 15 162 20 220
13 134 13 343 0 484 -29 331 -32 357 -59 509 -16 85 -39 199 -50 245 -6 23
-15 59 -20 80 -5 20 -15 57 -24 82 -8 25 -18 61 -22 80 -4 19 -11 41 -15 50
-4 8 -18 47 -30 85 -30 91 -93 251 -136 343 -19 40 -34 76 -34 79 0 6 -71 148
-121 241 -31 57 -168 280 -194 316 -14 18 -16 18 -72 1 -32 -9 -71 -21 -88
-26 -70 -21 -322 -102 -340 -109 -11 -4 -42 -16 -70 -25 -52 -18 -226 -81
-260 -95 -403 -162 -645 -280 -849 -416 -55 -36 -76 -40 -59 -11 4 8 42 52 83
98 285 318 661 694 850 849 30 25 70 59 90 75 19 17 61 50 93 74 70 53 147
137 147 160 0 24 -230 245 -359 346 -222 173 -311 236 -476 337 -66 40 -131
79 -145 86 -73 41 -304 153 -360 177 -36 15 -83 35 -105 45 -102 46 -425 152
-567 186 -74 17 -80 17 -155 0 -78 -18 -130 -32 -168 -46 -11 -4 -54 -20 -95
-35 -41 -15 -79 -32 -84 -36 -6 -5 -17 -9 -24 -9 -16 0 -235 -109 -320 -159
-29 -17 -55 -31 -58 -31 -16 0 -441 -280 -534 -352 -14 -11 -77 -58 -140 -105
-209 -156 -375 -294 -592 -490 -58 -51 -74 -44 -37 17 175 286 471 597 935
980 238 196 294 258 294 320 0 68 -5 70 -163 69 -78 -1 -162 -5 -187 -10z
m-2220 -4045 c0 -7 -279 -296 -303 -313 -24 -17 -235 -91 -259 -91 -10 0 -18
4 -18 9 0 8 179 148 257 201 11 8 51 36 88 63 36 26 67 47 69 47 2 0 34 20 72
45 62 41 94 54 94 39z"/>
</g>
</svg>
